HIERARCHY
ROOT reference
{
  OFFSET 0 0 0
  CHANNELS 6 Xposition Yposition Zposition Zrotation Xrotation Yrotation
  JOINT Hips
  {
    OFFSET -33.611 73.9632 189.911
    CHANNELS 6 Xposition Yposition Zposition Zrotation Xrotation Yrotation
    JOINT Spine
    {
      OFFSET 0 7.86299 0
      CHANNELS 6 Xposition Yposition Zposition Zrotation Xrotation Yrotation
      JOINT Spine1
      {
        OFFSET 0 22.6654 0
        CHANNELS 6 Xposition Yposition Zposition Zrotation Xrotation Yrotation
        JOINT Neck
        {
          OFFSET 0 22.5723 2.05203
          CHANNELS 6 Xposition Yposition Zposition Zrotation Xrotation Yrotation
          JOINT Head
          {
            OFFSET 0 13.4246 -1.9178
            CHANNELS 6 Xposition Yposition Zposition Zrotation Xrotation Yrotation
            End Site
            {
              OFFSET 0 23.9725 0
            }
          }
        }
        JOINT LeftShoulder
        {
          OFFSET 3.7941 20.1358 -0.319195
          CHANNELS 6 Xposition Yposition Zposition Zrotation Xrotation Yrotation
          JOINT LeftArm
          {
            OFFSET 12.7665 0 0
            CHANNELS 6 Xposition Yposition Zposition Zrotation Xrotation Yrotation
            JOINT LeftForeArm
            {
              OFFSET 28.396 0 0
              CHANNELS 6 Xposition Yposition Zposition Zrotation Xrotation Yrotation
              JOINT LeftHand
              {
                OFFSET 28.7929 0 0
                CHANNELS 6 Xposition Yposition Zposition Zrotation Xrotation Yrotation
                End Site
                {
                  OFFSET 14.3835 0 0
                }
              }
            }
          }
        }
        JOINT RightShoulder
        {
          OFFSET -3.85764 20.1358 -0.319195
          CHANNELS 6 Xposition Yposition Zposition Zrotation Xrotation Yrotation
          JOINT RightArm
          {
            OFFSET -12.7665 0 0
            CHANNELS 6 Xposition Yposition Zposition Zrotation Xrotation Yrotation
            JOINT RightForeArm
            {
              OFFSET -28.396 0 0
              CHANNELS 6 Xposition Yposition Zposition Zrotation Xrotation Yrotation
              JOINT RightHand
              {
                OFFSET -28.7929 0 0
                CHANNELS 6 Xposition Yposition Zposition Zrotation Xrotation Yrotation
                End Site
                {
                  OFFSET -14.3835 0 0
                }
              }
            }
          }
        }
      }
    }
    JOINT LeftUpLeg
    {
      OFFSET 9.58901 0 0
      CHANNELS 6 Xposition Yposition Zposition Zrotation Xrotation Yrotation
      JOINT LeftLeg
      {
        OFFSET 0 -41.7092 0
        CHANNELS 6 Xposition Yposition Zposition Zrotation Xrotation Yrotation
        JOINT LeftFoot
        {
          OFFSET 0 -41.5308 0
          CHANNELS 6 Xposition Yposition Zposition Zrotation Xrotation Yrotation
          JOINT LeftToeBase
          {
            OFFSET 0 -6.23286 14.3835
            CHANNELS 6 Xposition Yposition Zposition Zrotation Xrotation Yrotation
            End Site
            {
              OFFSET 0 0 3.8356
            }
          }
        }
      }
    }
    JOINT RightUpLeg
    {
      OFFSET -9.58901 0 0
      CHANNELS 6 Xposition Yposition Zposition Zrotation Xrotation Yrotation
      JOINT RightLeg
      {
        OFFSET 0 -41.7092 0
        CHANNELS 6 Xposition Yposition Zposition Zrotation Xrotation Yrotation
        JOINT RightFoot
        {
          OFFSET 0 -41.5308 0
          CHANNELS 6 Xposition Yposition Zposition Zrotation Xrotation Yrotation
          JOINT RightToeBase
          {
            OFFSET 0 -6.23286 14.3835
            CHANNELS 6 Xposition Yposition Zposition Zrotation Xrotation Yrotation
            End Site
            {
              OFFSET 0 0 3.8356
            }
          }
        }
      }
    }
  }
}
MOTION
Frames:	4
Frame Time:	0.004
0 0 0 0 0 -0 -26.9079 85.9829 -197.404 0.723157 -2.3188 5.45115 3.55271e-015 7.86299 -2.84217e-014 1.075 -5.47504 0.341155 3.55271e-015 22.6654 0 -0.449036 2.60223 0.299662 -3.55271e-015 22.5723 2.05203 1.12816 23.0234 1.15392 0 13.4246 -1.9178 -0.297053 -5.34625 1.22931 3.7941 20.1358 -0.319195 1.05353 7.75607 3.82502 12.7665 0 0 -14.9646 -4.10233 -8.34674 28.396 0 2.84217e-014 5.89769 -0.962489 -15.5291 28.7929 0 2.84217e-014 2.92005 -0.218553 -2.3762 -3.85764 20.1358 -0.319195 -3.57133 10.8703 7.93163 -12.7665 0 0 12.2656 -2.74786 2.53439 -28.396 2.84217e-014 2.84217e-014 -5.16437 -0.977556 12.1118 -28.7929 -1.42109e-014 0 1.1483 -0.403686 2.55737 9.58901 0 0 0.90139 3.03944 0.363004 -5.32907e-015 -41.7092 0 -3.95487 3.70622 -6.63318 0 -41.5308 2.84217e-014 2.16913 -8.59251 20.7197 0 -6.23286 14.3835 -4.41391e-032 -7.95139e-016 -3.18055e-015 -9.58901 -1.42109e-014 0 -2.7327 2.22714 -0.238499 0 -41.7092 0 3.22555 5.6753 -3.4769 3.55271e-015 -41.5308 0 1.46763 -9.59818 -10.0989 -1.42109e-014 -6.23286 14.3835 -7.95139e-016 0 1.59028e-015 
0 0 0 0 0 -0 -26.8999 85.9829 -197.404 0.723157 -2.3188 5.45115 3.55271e-015 7.86299 0 1.07589 -5.47229 0.350674 -3.55271e-015 22.6654 0 -0.449524 2.61068 0.309412 0 22.5723 2.05203 1.12065 23.0202 1.1539 -3.55271e-015 13.4246 -1.9178 -0.286187 -5.36256 1.22934 3.7941 20.1358 -0.319195 1.01823 7.76155 3.82507 12.7665 -1.42109e-014 2.84217e-014 -14.9624 -4.08348 -8.35511 28.396 0 0 5.89053 -0.879269 -15.53 28.7929 -5.68434e-014 2.84217e-014 2.96638 -0.13839 -2.42011 -3.85764 20.1358 -0.319195 -3.57349 10.87 7.94311 -12.7665 -1.42109e-014 2.84217e-014 12.2759 -2.72801 2.53435 -28.396 2.84217e-014 2.84217e-014 -5.12335 -1.04802 12.1699 -28.7929 1.42109e-014 2.84217e-014 0.957348 -0.480907 2.48026 9.58901 0 0 0.90139 3.03944 0.363004 -1.77636e-015 -41.7092 0 -3.95475 3.70621 -6.635 -3.55271e-015 -41.5308 0 2.19585 -8.58059 20.7274 7.10543e-015 -6.23286 14.3835 3.97569e-016 -7.95139e-016 -0 -9.58901 -1.42109e-014 2.84217e-014 -2.7327 2.22714 -0.238499 0 -41.7092 -2.84217e-014 3.22741 5.68549 -3.48938 7.10543e-015 -41.5308 -2.84217e-014 1.46919 -9.59905 -10.069 0 -6.23286 14.3835 0 0 -1.59028e-015 
0 0 0 0 0 -0 -26.8968 85.9829 -197.404 0.723157 -2.3188 5.45115 7.10543e-015 7.86299 0 1.07587 -5.46598 0.350825 0 22.6654 -2.84217e-014 -0.448029 2.61765 0.309509 0 22.5723 2.05203 1.10386 23.0051 1.15377 3.55271e-015 13.4246 -1.9178 -0.266651 -5.34826 1.22931 3.7941 20.1358 -0.319195 0.997551 7.78188 3.82526 12.7665 2.84217e-014 0 -14.9625 -4.0787 -8.36576 28.396 -2.84217e-014 2.84217e-014 5.7945 -0.974582 -15.5418 28.7929 0 2.84217e-014 3.24242 -0.250325 -2.35878 -3.85764 20.1358 -0.319195 -3.58296 10.8745 7.95509 -12.7665 2.84217e-014 0 12.2876 -2.71783 2.53748 -28.396 0 0 -5.17796 -0.99728 12.145 -28.7929 -1.42109e-014 0 1.1417 -0.419972 2.62257 9.58901 0 0 0.90139 3.03944 0.363004 -1.77636e-015 -41.7092 0 -3.9555 3.70607 -6.65342 3.55271e-015 -41.5308 0 2.20325 -8.59128 20.7568 0 -6.23286 14.3835 1.98785e-016 -7.95139e-016 6.36111e-015 -9.58901 -1.42109e-014 0 -2.7327 2.22714 -0.238499 7.10543e-015 -41.7092 -2.84217e-014 3.22823 5.68498 -3.49794 -7.10543e-015 -41.5308 2.84217e-014 1.49079 -9.59896 -10.0722 0 -6.23286 14.3835 -5.96354e-016 1.59028e-015 -1.59028e-015 
0 0 0 0 0 -0 -26.8939 85.9829 -197.404 0.723703 -2.3188 5.45115 3.55271e-015 7.86299 -2.84217e-014 1.07607 -5.45908 0.353432 -3.55271e-015 22.6654 0 -0.461174 2.62091 0.312299 0 22.5723 2.05203 1.11484 22.9954 1.15368 7.10543e-015 13.4246 -1.9178 -0.270083 -5.33602 1.22929 3.7941 20.1358 -0.319195 0.999397 7.77889 3.82523 12.7665 0 0 -14.9736 -4.05773 -8.3689 28.396 -2.84217e-014 2.84217e-014 5.79167 -0.962155 -15.538 28.7929 2.84217e-014 0 3.25702 -0.238703 -2.3643 -3.85764 20.1358 -0.319195 -3.56833 10.884 7.95923 -12.7665 1.42109e-014 -2.84217e-014 12.2869 -2.70172 2.5447 -28.396 2.84217e-014 2.84217e-014 -5.22175 -0.967748 12.1351 -28.7929 -1.42109e-014 0 1.49672 -0.375659 2.81398 9.58901 0 0 0.90139 3.03944 0.363004 -3.55271e-015 -41.7092 0 -3.96418 3.70621 -6.63414 3.55271e-015 -41.5308 -2.84217e-014 2.20624 -8.60118 20.7323 -7.10543e-015 -6.23286 14.3835 -3.97569e-016 7.95139e-016 -6.36111e-015 -9.58901 0 0 -2.73286 2.22714 -0.238499 3.55271e-015 -41.7092 2.84217e-014 3.229 5.68569 -3.50529 3.55271e-015 -41.5308 2.84217e-014 1.46385 -9.5997 -10.0467 -1.42109e-014 -6.23286 14.3835 -1.98785e-016 0 -1.59028e-015 
